# xmcd CD database file
#
# Track frame offsets:
#	150
#	6090
#	27664
#	56049
#	71881
#	90008
#	100795
#	112075
#	127892
#	149034
#	163171
#	180118
#
# Disc length: 2589 seconds
#
# Revision: 3
# Processed by: cddbd v1.5.2PL0 Copyright (c) Steve Scherf et al.
# Submitted via: CDex 1.70beta2
#
DISCID=a00a1b0c
DTITLE=Darell Mansfield Band - Last Chance Boogie
DYEAR=1998
DGENRE=Blues
TTITLE0=Hello - Goodbye Boogie
TTITLE1=High Water
TTITLE2=Dreamin' Schemin'
TTITLE3=Last Chance Boogie
TTITLE4=Revelation Song
TTITLE5=Nobody But You Lord
TTITLE6=Tell the Truth
TTITLE7=Walk With Me Jesus
TTITLE8=There's Gotta Be a Change
TTITLE9=I'm Ready
TTITLE10=It's Time to Go
TTITLE11=Hello - Goodbye Boogie
EXTD=YEAR: 1998
EXTT0=
EXTT1=
EXTT2=
EXTT3=
EXTT4=
EXTT5=
EXTT6=
EXTT7=
EXTT8=
EXTT9=
EXTT10=
EXTT11=
PLAYORDER=
